<svg version="1.1" id="Layer_1" xmlns="http://www.w3.org/2000/svg" xmlns:xlink="http://www.w3.org/1999/xlink" x="0px" y="0px"
	 width="100%" viewBox="0 0 500 500" enable-background="new 0 0 500 500" xml:space="preserve">
<path fill="#000000" opacity="1.000000" stroke="none" 
	d="
M322.000000,501.000000 
	C214.666687,501.000000 107.833382,501.000000 1.000057,501.000000 
	C1.000038,334.333405 1.000038,167.666794 1.000019,1.000147 
	C167.666565,1.000098 334.333130,1.000098 500.999756,1.000049 
	C500.999847,167.666519 500.999847,334.333038 500.999939,500.999786 
	C441.500000,501.000000 382.000000,501.000000 322.000000,501.000000 
M249.996246,401.427094 
	C249.674423,401.182312 249.352600,400.937500 249.030777,400.692688 
	C248.893799,400.968567 248.756805,401.244446 248.619812,401.520325 
	C249.053421,401.707275 249.487030,401.894226 250.247864,402.629547 
	C251.113129,403.665375 251.978409,404.701172 252.843674,405.737000 
	C253.163239,405.361145 253.482788,404.985260 253.802353,404.609375 
	C252.561920,403.713104 251.321487,402.816864 249.996246,401.427094 
M251.359100,413.253174 
	C250.324005,414.179077 249.288910,415.104980 248.253830,416.030884 
	C248.680954,416.385681 249.108078,416.740448 249.535202,417.095215 
	C250.380493,415.747406 251.225784,414.399567 252.532089,412.796814 
	C252.796005,412.447296 253.059921,412.097778 253.323853,411.748260 
	C253.119019,411.630493 252.914200,411.512726 252.709366,411.394958 
	C252.445923,411.902740 252.182480,412.410492 251.359100,413.253174 
M240.289505,400.509399 
	C240.289505,405.889252 240.289505,411.269104 240.289505,416.648926 
	C240.860962,416.637360 241.432419,416.625763 242.003876,416.614197 
	C242.003876,411.409180 242.003876,406.204163 242.689087,400.989410 
	C243.280930,400.637482 243.872757,400.285553 244.464600,399.933624 
	C243.305511,399.964813 242.146423,399.995972 240.289505,400.509399 
M372.705139,315.499451 
	C372.705139,326.438721 372.705139,337.377991 372.705139,348.276794 
	C376.468567,348.276794 379.583710,348.276794 382.860229,348.276794 
	C382.860229,269.072876 382.860229,190.124786 382.860229,111.065727 
	C379.501282,111.065727 376.241760,111.065727 372.538025,111.065727 
	C372.538025,148.211090 372.538025,185.105133 372.538025,222.230698 
	C321.839722,222.230698 271.591583,222.230698 220.980774,222.230698 
	C220.980774,185.149017 220.980774,148.206802 220.980774,111.172195 
	C217.227829,111.172195 213.841812,111.172195 210.068665,111.172195 
	C210.068665,146.574570 210.068665,181.618134 210.068665,217.717636 
	C208.372421,215.452103 207.293564,214.069580 206.275909,212.643372 
	C182.887833,179.866379 159.382309,147.171661 136.264343,114.205185 
	C132.986450,109.530876 129.608841,109.317795 125.237625,110.156883 
	C125.237625,189.409882 125.237625,268.313324 125.237625,347.170990 
	C128.470856,347.170990 131.370987,347.170990 134.939758,347.170990 
	C134.939758,274.891266 134.939758,202.971359 134.939758,129.873993 
	C159.621857,164.407333 183.565048,197.798523 207.300568,231.336700 
	C209.059525,233.822098 210.142593,237.359375 210.160339,240.415680 
	C210.358704,274.576752 210.285660,308.739410 210.285736,342.901642 
	C210.285736,344.656219 210.285736,346.410828 210.285736,348.152893 
	C214.219345,348.152893 217.446259,348.152893 221.017181,348.152893 
	C221.017181,315.707947 221.017181,283.641388 221.017181,250.398544 
	C222.811172,252.867538 223.944778,254.405441 225.055542,255.959671 
	C245.759567,284.929626 266.555847,313.834656 287.057861,342.946869 
	C290.048737,347.193817 293.169708,348.437469 297.937317,347.057983 
	C297.937317,312.696136 297.937317,278.423035 297.937317,244.035782 
	C294.804779,244.035782 291.864655,244.035782 288.261902,244.035782 
	C288.261902,271.531006 288.261902,298.809021 288.261902,327.599792 
	C265.103424,295.111084 242.892319,263.951355 220.310562,232.271698 
	C271.711823,232.271698 322.105164,232.271698 372.705170,232.271698 
	C372.705170,259.851776 372.705170,287.175598 372.705139,315.499451 
M288.563751,158.499756 
	C288.563751,176.393463 288.563751,194.287186 288.563751,212.193146 
	C292.117767,212.193146 294.888397,212.193146 297.762939,212.193146 
	C297.762939,177.984207 297.762939,143.972687 297.762939,110.193069 
	C294.495728,110.193069 291.587555,110.193069 288.563721,110.193069 
	C288.563721,126.200806 288.563721,141.850266 288.563751,158.499756 
M186.007812,372.568481 
	C186.007812,376.352661 186.007812,380.136871 186.007812,383.921051 
	C186.438141,383.894684 186.868469,383.868317 187.298798,383.841949 
	C187.298798,378.342346 187.298798,372.842743 187.298798,367.343170 
	C186.948837,367.344818 186.598877,367.346497 186.248901,367.348175 
	C186.168564,368.789581 186.088211,370.231018 186.007812,372.568481 
M260.979065,381.822388 
	C260.979065,376.970490 260.979065,372.118591 260.979065,367.266693 
	C260.545593,367.308319 260.112122,367.349945 259.678650,367.391571 
	C259.035492,371.998016 258.320221,376.596161 257.787262,381.215332 
	C257.593597,382.893738 258.994659,383.464661 260.979065,381.822388 
M275.994751,414.080170 
	C275.407928,409.595734 277.192780,404.830902 274.621002,399.384369 
	C274.621002,405.978210 274.621002,411.329437 274.621002,416.680664 
	C274.907776,416.684326 275.194550,416.688019 275.481323,416.691711 
	C275.647034,416.118103 275.812744,415.544464 275.994751,414.080170 
M204.622467,369.348785 
	C204.355804,368.487366 204.089142,367.625946 203.670380,366.273224 
	C202.464432,368.410797 201.568192,369.999420 200.671951,371.588013 
	C200.899857,371.751740 201.127762,371.915466 201.355667,372.079224 
	C202.304367,371.328644 203.253067,370.578094 204.622467,369.348785 
M206.440842,377.703705 
	C206.728821,378.610260 207.016785,379.516815 207.304764,380.423370 
	C207.828415,379.837952 208.352066,379.252502 208.875717,378.667053 
	C208.199738,378.222565 207.523773,377.778046 206.440842,377.703705 
M199.706482,375.593750 
	C200.002396,375.374146 200.298309,375.154572 200.594208,374.934967 
	C200.414139,374.746338 200.234055,374.557678 200.053986,374.369049 
	C199.820984,374.654785 199.587967,374.940521 199.706482,375.593750 
M201.290115,403.441864 
	C201.009155,403.709808 200.725525,403.975311 200.462051,404.259491 
	C200.455231,404.266846 200.669006,404.478668 200.779877,404.595154 
	C201.060944,404.326721 201.342010,404.058289 201.290115,403.441864 
M201.801758,414.402191 
	C201.797470,414.789490 201.793198,415.176788 201.788925,415.564087 
	C201.949646,415.565765 202.250031,415.578247 202.250854,415.567566 
	C202.280685,415.182068 202.282593,414.794373 201.801758,414.402191 
M209.706650,416.560242 
	C209.986847,416.292755 210.269684,416.027710 210.532440,415.744019 
	C210.539169,415.736786 210.325378,415.525299 210.214432,415.409088 
	C209.934158,415.676819 209.653885,415.944550 209.706650,416.560242 
M205.890350,374.723999 
	C206.170135,374.460785 206.455414,374.202698 206.715714,373.921448 
	C206.731003,373.904938 206.544708,373.701843 206.452209,373.585571 
	C206.158249,373.861969 205.864273,374.138367 205.890350,374.723999 
M213.475388,413.354309 
	C213.528244,413.151917 213.581116,412.949554 213.633972,412.747162 
	C213.504623,412.877228 213.375290,413.007324 213.475388,413.354309 
M207.356384,417.524506 
	C207.152802,417.471405 206.949234,417.418304 206.745651,417.365204 
	C206.876495,417.495209 207.007324,417.625214 207.356384,417.524506 
M198.418396,377.481934 
	C198.418396,377.481934 198.522476,377.420593 198.418396,377.481934 
M199.418350,406.483002 
	C199.418350,406.483002 199.522446,406.421997 199.418350,406.483002 
z"/>
<path fill="#F0F0F0" opacity="1.000000" stroke="none" 
	d="
M372.705139,314.999451 
	C372.705170,287.175598 372.705170,259.851776 372.705170,232.271698 
	C322.105164,232.271698 271.711823,232.271698 220.310562,232.271698 
	C242.892319,263.951355 265.103424,295.111084 288.261902,327.599792 
	C288.261902,298.809021 288.261902,271.531006 288.261902,244.035782 
	C291.864655,244.035782 294.804779,244.035782 297.937317,244.035782 
	C297.937317,278.423035 297.937317,312.696136 297.937317,347.057983 
	C293.169708,348.437469 290.048737,347.193817 287.057861,342.946869 
	C266.555847,313.834656 245.759567,284.929626 225.055542,255.959671 
	C223.944778,254.405441 222.811172,252.867538 221.017181,250.398544 
	C221.017181,283.641388 221.017181,315.707947 221.017181,348.152893 
	C217.446259,348.152893 214.219345,348.152893 210.285736,348.152893 
	C210.285736,346.410828 210.285736,344.656219 210.285736,342.901642 
	C210.285660,308.739410 210.358704,274.576752 210.160339,240.415680 
	C210.142593,237.359375 209.059525,233.822098 207.300568,231.336700 
	C183.565048,197.798523 159.621857,164.407333 134.939758,129.873993 
	C134.939758,202.971359 134.939758,274.891266 134.939758,347.170990 
	C131.370987,347.170990 128.470856,347.170990 125.237625,347.170990 
	C125.237625,268.313324 125.237625,189.409882 125.237625,110.156883 
	C129.608841,109.317795 132.986450,109.530876 136.264343,114.205185 
	C159.382309,147.171661 182.887833,179.866379 206.275909,212.643372 
	C207.293564,214.069580 208.372421,215.452103 210.068665,217.717636 
	C210.068665,181.618134 210.068665,146.574570 210.068665,111.172195 
	C213.841812,111.172195 217.227829,111.172195 220.980774,111.172195 
	C220.980774,148.206802 220.980774,185.149017 220.980774,222.230698 
	C271.591583,222.230698 321.839722,222.230698 372.538025,222.230698 
	C372.538025,185.105133 372.538025,148.211090 372.538025,111.065727 
	C376.241760,111.065727 379.501282,111.065727 382.860229,111.065727 
	C382.860229,190.124786 382.860229,269.072876 382.860229,348.276794 
	C379.583710,348.276794 376.468567,348.276794 372.705139,348.276794 
	C372.705139,337.377991 372.705139,326.438721 372.705139,314.999451 
z"/>
<path fill="#F8F8F8" opacity="1.000000" stroke="none" 
	d="
M288.563721,157.999756 
	C288.563721,141.850266 288.563721,126.200806 288.563721,110.193069 
	C291.587555,110.193069 294.495728,110.193069 297.762939,110.193069 
	C297.762939,143.972687 297.762939,177.984207 297.762939,212.193146 
	C294.888397,212.193146 292.117767,212.193146 288.563751,212.193146 
	C288.563751,194.287186 288.563751,176.393463 288.563721,157.999756 
z"/>
<path fill="#696969" opacity="1.000000" stroke="none" 
	d="
M186.007843,372.120453 
	C186.088211,370.231018 186.168564,368.789581 186.248901,367.348175 
	C186.598877,367.346497 186.948837,367.344818 187.298798,367.343170 
	C187.298798,372.842743 187.298798,378.342346 187.298798,383.841949 
	C186.868469,383.868317 186.438141,383.894684 186.007812,383.921051 
	C186.007812,380.136871 186.007812,376.352661 186.007843,372.120453 
z"/>
<path fill="#696969" opacity="1.000000" stroke="none" 
	d="
M260.956726,382.242432 
	C258.994659,383.464661 257.593597,382.893738 257.787262,381.215332 
	C258.320221,376.596161 259.035492,371.998016 259.678650,367.391571 
	C260.112122,367.349945 260.545593,367.308319 260.979065,367.266693 
	C260.979065,372.118591 260.979065,376.970490 260.956726,382.242432 
z"/>
<path fill="#6C6C6C" opacity="1.000000" stroke="none" 
	d="
M242.003876,400.999146 
	C242.003876,406.204163 242.003876,411.409180 242.003876,416.614197 
	C241.432419,416.625763 240.860962,416.637360 240.289505,416.648926 
	C240.289505,411.269104 240.289505,405.889252 240.726349,400.501617 
	C241.380661,400.766693 241.660889,400.935120 242.003876,400.999146 
z"/>
<path fill="#676767" opacity="1.000000" stroke="none" 
	d="
M275.986603,414.525513 
	C275.812744,415.544464 275.647034,416.118103 275.481323,416.691711 
	C275.194550,416.688019 274.907776,416.684326 274.621002,416.680664 
	C274.621002,411.329437 274.621002,405.978210 274.621002,399.384369 
	C277.192780,404.830902 275.407928,409.595734 275.986603,414.525513 
z"/>
<path fill="#0A0A0A" opacity="1.000000" stroke="none" 
	d="
M204.412109,369.588165 
	C203.253067,370.578094 202.304367,371.328644 201.355667,372.079224 
	C201.127762,371.915466 200.899857,371.751740 200.671951,371.588013 
	C201.568192,369.999420 202.464432,368.410797 203.670380,366.273224 
	C204.089142,367.625946 204.355804,368.487366 204.412109,369.588165 
z"/>
<path fill="#050505" opacity="1.000000" stroke="none" 
	d="
M252.071075,413.051758 
	C251.225784,414.399567 250.380493,415.747406 249.535202,417.095215 
	C249.108078,416.740448 248.680954,416.385681 248.253830,416.030884 
	C249.288910,415.104980 250.324005,414.179077 251.675873,413.120483 
	C251.992630,412.987793 252.071075,413.051758 252.071075,413.051758 
z"/>
<path fill="#050505" opacity="1.000000" stroke="none" 
	d="
M242.346481,400.994263 
	C241.660889,400.935120 241.380661,400.766693 241.075256,400.260498 
	C242.146423,399.995972 243.305511,399.964813 244.464600,399.933594 
	C243.872757,400.285553 243.280930,400.637482 242.346481,400.994263 
z"/>
<path fill="#050505" opacity="1.000000" stroke="none" 
	d="
M250.081055,401.920593 
	C251.321487,402.816864 252.561920,403.713104 253.802353,404.609375 
	C253.482788,404.985260 253.163239,405.361145 252.843674,405.737000 
	C251.978409,404.701172 251.113129,403.665375 250.124146,402.315033 
	C250.000443,402.000519 250.081055,401.920593 250.081055,401.920593 
z"/>
<path fill="#0A0A0A" opacity="1.000000" stroke="none" 
	d="
M206.644318,377.518616 
	C207.523773,377.778046 208.199738,378.222565 208.875717,378.667053 
	C208.352066,379.252502 207.828415,379.837952 207.304764,380.423370 
	C207.016785,379.516815 206.728821,378.610260 206.644318,377.518616 
z"/>
<path fill="#0A0A0A" opacity="1.000000" stroke="none" 
	d="
M199.530716,375.410004 
	C199.587967,374.940521 199.820984,374.654785 200.053986,374.369049 
	C200.234055,374.557678 200.414139,374.746338 200.594208,374.934967 
	C200.298309,375.154572 200.002396,375.374146 199.530716,375.410004 
z"/>
<path fill="#020202" opacity="1.000000" stroke="none" 
	d="
M201.456589,403.615845 
	C201.342010,404.058289 201.060944,404.326721 200.779877,404.595154 
	C200.669006,404.478668 200.455231,404.266846 200.462051,404.259491 
	C200.725525,403.975311 201.009155,403.709808 201.456589,403.615845 
z"/>
<path fill="#020202" opacity="1.000000" stroke="none" 
	d="
M202.045059,414.404602 
	C202.282593,414.794373 202.280685,415.182068 202.250854,415.567566 
	C202.250031,415.578247 201.949646,415.565765 201.788925,415.564087 
	C201.793198,415.176788 201.797470,414.789490 202.045059,414.404602 
z"/>
<path fill="#020202" opacity="1.000000" stroke="none" 
	d="
M209.540131,416.386261 
	C209.653885,415.944550 209.934158,415.676819 210.214447,415.409088 
	C210.325378,415.525299 210.539169,415.736786 210.532440,415.744019 
	C210.269684,416.027710 209.986847,416.292755 209.540131,416.386261 
z"/>
<path fill="#0A0A0A" opacity="1.000000" stroke="none" 
	d="
M205.730316,374.569397 
	C205.864273,374.138367 206.158249,373.861969 206.452209,373.585571 
	C206.544708,373.701843 206.731003,373.904938 206.715714,373.921448 
	C206.455414,374.202698 206.170135,374.460785 205.730316,374.569397 
z"/>
<path fill="#050505" opacity="1.000000" stroke="none" 
	d="
M249.960541,402.040863 
	C249.487030,401.894226 249.053421,401.707275 248.619812,401.520325 
	C248.756805,401.244446 248.893799,400.968567 249.030762,400.692688 
	C249.352600,400.937500 249.674423,401.182312 250.038651,401.673828 
	C250.081055,401.920593 250.000443,402.000519 249.960541,402.040863 
z"/>
<path fill="#050505" opacity="1.000000" stroke="none" 
	d="
M251.955826,412.953033 
	C252.182480,412.410492 252.445923,411.902740 252.709366,411.394958 
	C252.914200,411.512726 253.119019,411.630493 253.323853,411.748260 
	C253.059921,412.097778 252.796005,412.447296 252.301575,412.924286 
	C252.071075,413.051758 251.992630,412.987793 251.955826,412.953033 
z"/>
<path fill="#020202" opacity="1.000000" stroke="none" 
	d="
M213.360657,413.245850 
	C213.375290,413.007324 213.504623,412.877228 213.633972,412.747162 
	C213.581116,412.949554 213.528244,413.151917 213.360657,413.245850 
z"/>
<path fill="#020202" opacity="1.000000" stroke="none" 
	d="
M207.247284,417.639862 
	C207.007324,417.625214 206.876495,417.495209 206.745667,417.365204 
	C206.949234,417.418304 207.152802,417.471405 207.247284,417.639862 
z"/>
<path fill="#0A0A0A" opacity="1.000000" stroke="none" 
	d="
M198.470428,377.451263 
	C198.522476,377.420593 198.418396,377.481934 198.470428,377.451263 
z"/>
<path fill="#020202" opacity="1.000000" stroke="none" 
	d="
M199.470398,406.452515 
	C199.522446,406.421997 199.418350,406.483002 199.470398,406.452515 
z"/>
</svg>